<?xml version="1.0" standalone="no"?><!-- Generator: Gravit.io --><svg xmlns="http://www.w3.org/2000/svg" xmlns:xlink="http://www.w3.org/1999/xlink" style="isolation:isolate" viewBox="0 0 186.916 186.916" width="186.916" height="186.916"><defs><clipPath id="_clipPath_Hu0LtphDNSfNpJGsoDsOCAuRqT5HY8py"><rect width="186.916" height="186.916"/></clipPath></defs><g clip-path="url(#_clipPath_Hu0LtphDNSfNpJGsoDsOCAuRqT5HY8py)"><g><g><defs><filter id="w8AXBseaYf6t3rIxtckx3bNTJbrdzXBx" x="-200%" y="-200%" width="400%" height="400%" filterUnits="objectBoundingBox" color-interpolation-filters="sRGB"><feGaussianBlur xmlns="http://www.w3.org/2000/svg" in="SourceGraphic" stdDeviation="1.2880827188517086"/><feOffset xmlns="http://www.w3.org/2000/svg" dx="0" dy="0" result="pf_100_offsetBlur"/><feFlood xmlns="http://www.w3.org/2000/svg" flood-color="#000000" flood-opacity="0.65"/><feComposite xmlns="http://www.w3.org/2000/svg" in2="pf_100_offsetBlur" operator="in" result="pf_100_dropShadow"/><feBlend xmlns="http://www.w3.org/2000/svg" in="SourceGraphic" in2="pf_100_dropShadow" mode="normal"/></filter></defs><g filter="url(#w8AXBseaYf6t3rIxtckx3bNTJbrdzXBx)"><path d=" M 65.895 59.748 C 83.175 72.093 94.431 90.036 94.431 90.036 C 95.45 82.583 129.385 52.518 129.385 52.518 C 136.613 45.638 138.725 34.175 138.725 34.175 C 142.426 7.016 117.739 4.152 117.743 4.152 C 100.109 2.519 94.429 14.598 94.429 14.598 C 82.75 -1.978 64.48 6.135 64.48 6.135 C 47.898 12.658 49.402 30.824 49.402 30.824 C 49.404 47.05 65.895 59.748 65.895 59.748 Z  M 69.089 13.666 C 69.089 13.666 84.53 7.046 94.403 20.57 C 94.403 20.57 99.2 10.719 114.105 12.046 C 114.099 12.046 134.966 14.386 131.836 36.541 C 131.836 36.541 130.05 45.891 123.943 51.503 C 123.943 51.503 95.264 76.029 94.403 82.108 C 94.403 82.108 84.889 67.474 70.285 57.402 C 70.285 57.402 56.347 47.046 56.347 33.808 C 56.343 33.806 55.073 18.99 69.089 13.666 Z " fill="rgb(255,255,255)"/></g><defs><filter id="DCLdpFCBM2ay8wYfkmig4aM3pjD65SBY" x="-200%" y="-200%" width="400%" height="400%" filterUnits="objectBoundingBox" color-interpolation-filters="sRGB"><feGaussianBlur xmlns="http://www.w3.org/2000/svg" in="SourceGraphic" stdDeviation="1.2880827188517086"/><feOffset xmlns="http://www.w3.org/2000/svg" dx="0" dy="0" result="pf_100_offsetBlur"/><feFlood xmlns="http://www.w3.org/2000/svg" flood-color="#000000" flood-opacity="0.65"/><feComposite xmlns="http://www.w3.org/2000/svg" in2="pf_100_offsetBlur" operator="in" result="pf_100_dropShadow"/><feBlend xmlns="http://www.w3.org/2000/svg" in="SourceGraphic" in2="pf_100_dropShadow" mode="normal"/></filter></defs><g filter="url(#DCLdpFCBM2ay8wYfkmig4aM3pjD65SBY)"><path d=" M 122.164 127.167 C 104.882 114.819 93.627 96.879 93.627 96.879 C 92.606 104.329 58.676 134.394 58.676 134.394 C 51.45 141.274 49.334 152.739 49.334 152.739 C 45.63 179.901 70.322 182.765 70.315 182.765 C 87.949 184.393 93.627 172.317 93.627 172.317 C 105.304 188.895 123.576 180.78 123.576 180.78 C 140.161 174.256 138.655 156.093 138.655 156.093 C 138.655 139.864 122.164 127.167 122.164 127.167 Z  M 118.968 173.248 C 118.968 173.248 103.528 179.866 93.655 166.344 C 93.655 166.344 88.861 176.197 73.953 174.866 C 73.96 174.866 53.092 172.531 56.221 150.374 C 56.221 150.374 58.009 141.023 64.115 135.409 C 64.115 135.409 92.794 110.884 93.653 104.806 C 93.653 104.806 103.17 119.441 117.772 129.515 C 117.772 129.515 131.713 139.871 131.713 153.109 C 131.715 153.109 132.981 167.927 118.968 173.248 Z " fill="rgb(255,255,255)"/></g><defs><filter id="V3G2AGK5Hxb4d34EDQvZWT2tOqB5Ftrj" x="-200%" y="-200%" width="400%" height="400%" filterUnits="objectBoundingBox" color-interpolation-filters="sRGB"><feGaussianBlur xmlns="http://www.w3.org/2000/svg" in="SourceGraphic" stdDeviation="1.2880827188517086"/><feOffset xmlns="http://www.w3.org/2000/svg" dx="0" dy="0" result="pf_100_offsetBlur"/><feFlood xmlns="http://www.w3.org/2000/svg" flood-color="#000000" flood-opacity="0.65"/><feComposite xmlns="http://www.w3.org/2000/svg" in2="pf_100_offsetBlur" operator="in" result="pf_100_dropShadow"/><feBlend xmlns="http://www.w3.org/2000/svg" in="SourceGraphic" in2="pf_100_dropShadow" mode="normal"/></filter></defs><g filter="url(#V3G2AGK5Hxb4d34EDQvZWT2tOqB5Ftrj)"><path d=" M 172.318 93.862 C 188.892 82.181 180.779 63.912 180.779 63.912 C 174.257 47.33 156.092 48.834 156.092 48.834 C 139.866 48.834 127.168 65.323 127.168 65.323 C 114.822 82.605 96.88 93.862 96.88 93.862 C 104.331 94.88 134.396 128.815 134.396 128.815 C 141.276 136.041 152.74 138.153 152.74 138.153 C 179.9 141.854 182.764 117.169 182.764 117.176 C 184.399 99.537 172.318 93.862 172.318 93.862 Z  M 174.867 113.533 C 174.867 113.529 172.53 134.39 150.375 131.262 C 150.375 131.262 141.024 129.478 135.41 123.371 C 135.41 123.371 110.885 94.695 104.807 93.831 C 104.807 93.831 119.44 84.319 129.516 69.713 C 129.516 69.713 139.87 55.775 153.11 55.775 C 153.11 55.775 167.924 54.503 173.249 68.519 C 173.249 68.519 179.867 83.96 166.345 93.831 C 166.345 93.831 176.197 98.623 174.867 113.533 Z " fill="rgb(255,255,255)"/></g><defs><filter id="GIMSCF6VWRMIzhYs7SaWDCLmH9hW3229" x="-200%" y="-200%" width="400%" height="400%" filterUnits="objectBoundingBox" color-interpolation-filters="sRGB"><feGaussianBlur xmlns="http://www.w3.org/2000/svg" in="SourceGraphic" stdDeviation="1.2880827188517086"/><feOffset xmlns="http://www.w3.org/2000/svg" dx="0" dy="0" result="pf_100_offsetBlur"/><feFlood xmlns="http://www.w3.org/2000/svg" flood-color="#000000" flood-opacity="0.65"/><feComposite xmlns="http://www.w3.org/2000/svg" in2="pf_100_offsetBlur" operator="in" result="pf_100_dropShadow"/><feBlend xmlns="http://www.w3.org/2000/svg" in="SourceGraphic" in2="pf_100_dropShadow" mode="normal"/></filter></defs><g filter="url(#GIMSCF6VWRMIzhYs7SaWDCLmH9hW3229)"><path d=" M 59.753 121.592 C 72.095 104.31 90.039 93.057 90.039 93.057 C 82.586 92.036 52.521 58.106 52.521 58.106 C 45.644 50.878 34.179 48.764 34.179 48.764 C 7.015 45.058 4.151 69.75 4.151 69.743 C 2.522 87.377 14.601 93.057 14.601 93.057 C -1.979 104.732 6.136 123.006 6.136 123.006 C 12.658 139.587 30.821 138.083 30.821 138.083 C 47.056 138.083 59.753 121.592 59.753 121.592 Z  M 33.812 131.143 C 33.812 131.143 18.993 132.409 13.668 118.396 C 13.668 118.396 7.048 102.959 20.574 93.086 C 20.574 93.086 10.719 88.291 12.054 73.383 C 12.054 73.388 14.389 52.52 36.549 55.649 C 36.549 55.649 45.897 57.437 51.509 63.545 C 51.509 63.545 76.037 92.222 82.114 93.083 C 82.114 93.083 67.475 102.598 57.408 117.2 C 57.405 117.202 47.045 131.143 33.812 131.143 Z " fill="rgb(255,255,255)"/></g></g></g></g></svg>